<svg xmlns="http://www.w3.org/2000/svg" width="234.871" height="17.185" viewBox="0 0 234.871 17.185">
  <path id="Path_37" data-name="Path 37" d="M-2855.229,1923.7c-4.762-3.746-9.812-7.546-19.621-7.546-9.295,0-14.285,3.415-18.875,6.939-4.589-3.524-9.582-6.939-18.874-6.939-9.812,0-14.861,3.8-19.621,7.546-4.819-3.746-9.812-7.546-19.621-7.546-9.466,0-14.515,3.524-19.1,7.159-5.165-4.021-10.385-7.159-19.851-7.159-9.295,0-14.285,3.415-18.874,6.939-4.589-3.524-9.582-6.939-18.875-6.939-9.81,0-14.8,3.8-19.621,7.546-4.82-3.746-9.812-7.546-19.621-7.546-9.293,0-14.285,3.415-18.874,6.939l-1.719,1.377,1.719,1.322c4.762,3.745,9.81,7.546,19.621,7.546,9.293,0,14.285-3.415,18.875-7,4.589,3.58,9.582,7,18.874,7,9.81,0,14.859-3.8,19.621-7.546,4.819,3.745,9.81,7.546,19.621,7.546,9.464,0,14.513-3.58,19.1-7.216,5.161,4.021,10.381,7.216,19.849,7.216,9.292,0,14.285-3.415,18.874-7,4.589,3.58,9.582,7,18.875,7,9.812,0,14.859-3.8,19.621-7.546,4.817,3.745,9.81,7.546,19.619,7.546,9.295,0,14.285-3.415,18.876-7l1.721-1.322Zm-211.81,7.49c-8.835,0-13.367-3.194-17.9-6.72,4.3-3.3,8.835-6.224,17.154-6.224,8.835,0,13.367,3.249,17.9,6.774C-3054.188,1928.322-3058.72,1931.187-3067.039,1931.187Zm37.749,0c-8.318,0-12.851-2.864-17.153-6.169,4.532-3.525,9.065-6.774,17.9-6.774,8.318,0,12.851,2.919,17.154,6.224C-3015.922,1927.992-3020.455,1931.187-3029.29,1931.187Zm39.242,0c-8.778,0-13.368-3.194-17.9-6.72,4.3-3.3,8.835-6.224,17.153-6.224,8.662,0,13.425,2.754,18.3,6.5C-2976.91,1928.157-2981.442,1931.187-2990.048,1931.187Zm38.953,0c-8.662,0-13.425-2.754-18.3-6.444,4.417-3.415,8.949-6.444,17.554-6.444,8.778,0,13.368,3.194,17.9,6.72C-2938.244,1928.322-2942.776,1931.187-2951.094,1931.187Zm37.749,0c-8.318,0-12.851-2.864-17.154-6.169,4.532-3.525,9.065-6.72,17.9-6.72,8.318,0,12.851,2.864,17.153,6.169C-2899.978,1927.992-2904.51,1931.187-2913.345,1931.187Zm39.24,0c-8.835,0-13.367-3.194-17.9-6.72,4.3-3.3,8.833-6.169,17.154-6.169,8.833,0,13.365,3.194,17.9,6.72C-2861.255,1928.322-2865.787,1931.187-2874.105,1931.187Z" transform="translate(3088.379 -1916.15)" fill="#d8d8d8"/>
</svg>
